<?xml version="1.0" encoding="UTF-8" standalone="no"?>
<svg
   xmlns:dc="http://purl.org/dc/elements/1.1/"
   xmlns:cc="http://creativecommons.org/ns#"
   xmlns:rdf="http://www.w3.org/1999/02/22-rdf-syntax-ns#"
   xmlns:svg="http://www.w3.org/2000/svg"
   xmlns="http://www.w3.org/2000/svg"
   xmlns:sodipodi="http://sodipodi.sourceforge.net/DTD/sodipodi-0.dtd"
   xmlns:inkscape="http://www.inkscape.org/namespaces/inkscape"
   version="1.1"
   id="svg2"
   xml:space="preserve"
   width="4325.3999"
   height="4325.3335"
   viewBox="0 0 4325.3999 4325.3335"
   sodipodi:docname="git-seeklogo.com.eps"><metadata
     id="metadata8"><rdf:RDF><cc:Work
         rdf:about=""><dc:format>image/svg+xml</dc:format><dc:type
           rdf:resource="http://purl.org/dc/dcmitype/StillImage" /></cc:Work></rdf:RDF></metadata><defs
     id="defs6" /><sodipodi:namedview
     pagecolor="#ffffff"
     bordercolor="#666666"
     borderopacity="1"
     objecttolerance="10"
     gridtolerance="10"
     guidetolerance="10"
     inkscape:pageopacity="0"
     inkscape:pageshadow="2"
     inkscape:window-width="640"
     inkscape:window-height="480"
     id="namedview4" /><g
     id="g10"
     inkscape:groupmode="layer"
     inkscape:label="ink_ext_XXXXXX"
     transform="matrix(1.3333333,0,0,-1.3333333,0,4325.3333)"><g
       id="g12"
       transform="scale(0.1)"><path
         d="M 31828.8,17665.1 17664.9,31828.2 c -815.2,815.7 -2138.1,815.7 -2954.4,0 l -2941.1,-2941.2 3731,-3731 c 867,293 1861.3,96.4 2552.4,-594.7 694.4,-695.6 889.6,-1698.3 589.5,-2568.2 L 22238,18397.3 c 870,299.7 1873.7,105.8 2568.5,-590.1 971.1,-970.7 971.1,-2544 0,-3515.3 -971.3,-971.4 -2544.5,-971.4 -3516.3,0 -730.5,731.2 -910.9,1803.9 -541.1,2703.7 l -3353.3,3353.3 -0.4,-8824.4 c 243.1,-120.2 465.1,-279 657.4,-470.2 971.1,-970.7 971.1,-2544 0,-3516.1 -971.3,-970.9 -2545.3,-970.9 -3515.2,0 -971.1,972.1 -971.1,2545.3 0,3516 232.7,232.8 509.2,417.2 813.6,542.5 v 8906.7 c -304.8,124.5 -581.5,308.9 -813.6,542.5 -735.8,734.7 -912.7,1814.3 -535.7,2717.7 L 10324,27441.9 612.066,17730.6 c -816.086,-816.4 -816.086,-2139.5 0,-2955.4 L 14776.2,611.898 c 815.4,-815.898 2138.2,-815.898 2954.6,0 L 31828.7,14709.5 c 815.8,816.1 815.8,2139.9 0,2955.6"
         style="fill:#e03930;fill-opacity:1;fill-rule:nonzero;stroke:none"
         id="path14" /></g></g></svg>
