<?xml version="1.0" encoding="UTF-8" standalone="no"?>
<svg
   xmlns:dc="http://purl.org/dc/elements/1.1/"
   xmlns:cc="http://creativecommons.org/ns#"
   xmlns:rdf="http://www.w3.org/1999/02/22-rdf-syntax-ns#"
   xmlns:svg="http://www.w3.org/2000/svg"
   xmlns="http://www.w3.org/2000/svg"
   xmlns:sodipodi="http://sodipodi.sourceforge.net/DTD/sodipodi-0.dtd"
   xmlns:inkscape="http://www.inkscape.org/namespaces/inkscape"
   version="1.1"
   id="svg2"
   xml:space="preserve"
   width="646.14667"
   height="185.30667"
   viewBox="0 0 646.14667 185.30667"
   sodipodi:docname="mongodb-seeklogo.com.eps"><metadata
     id="metadata8"><rdf:RDF><cc:Work
         rdf:about=""><dc:format>image/svg+xml</dc:format><dc:type
           rdf:resource="http://purl.org/dc/dcmitype/StillImage" /></cc:Work></rdf:RDF></metadata><defs
     id="defs6"><clipPath
       clipPathUnits="userSpaceOnUse"
       id="clipPath20"><path
         d="m 332.363,44.4414 -36.09,11.957 c 0,0 4.598,182.6406 -61.277,195.4216 -43.433,50.321 6.684,2149.73 164.477,7.18 0,0 -54.008,-27.121 -64.231,-73.148 C 325.023,139.75 332.363,44.4414 332.363,44.4414 Z"
         id="path18" /></clipPath><linearGradient
       x1="0"
       y1="0"
       x2="1"
       y2="0"
       gradientUnits="userSpaceOnUse"
       gradientTransform="matrix(414.805,-139.95,-126.244,-372.256,93.6544,703.644)"
       spreadMethod="pad"
       id="linearGradient28"><stop
         style="stop-opacity:1;stop-color:#949869"
         offset="0"
         id="stop22" /><stop
         style="stop-opacity:1;stop-color:#949869"
         offset="0.230769"
         id="stop24" /><stop
         style="stop-opacity:1;stop-color:#fdfcf0"
         offset="1"
         id="stop26" /></linearGradient><clipPath
       clipPathUnits="userSpaceOnUse"
       id="clipPath38"><path
         d="m 351.805,220.809 c 0,0 313.558,206.515 240.093,635.414 -70.734,311.607 -237.757,414.037 -255.714,453.157 -19.762,27.66 -39.657,76.72 -39.657,76.72 l 13.336,-868.209 c 0,0 -27.593,-265.102 41.942,-297.082 z"
         id="path36" /></clipPath><linearGradient
       x1="0"
       y1="0"
       x2="1"
       y2="0"
       gradientUnits="userSpaceOnUse"
       gradientTransform="matrix(290.462,-1127.58,-1213.23,-194.514,245.614,1377.93)"
       spreadMethod="pad"
       id="linearGradient44"><stop
         style="stop-opacity:1;stop-color:#50a341"
         offset="0"
         id="stop40" /><stop
         style="stop-opacity:1;stop-color:#439036"
         offset="1"
         id="stop42" /></linearGradient><clipPath
       clipPathUnits="userSpaceOnUse"
       id="clipPath54"><path
         d="m 277.902,209.27 c 0,0 -294.1168,200.648 -277.198875,554.679 C 17.6367,1117.98 225.379,1292.06 265.836,1323.63 c 26.16,27.89 27.234,38.64 29.262,66.14 18.336,-39.38 15.285,-588.254 17.222,-652.403 C 319.859,487.629 298.488,256.41 277.902,209.27 Z"
         id="path52" /></clipPath><linearGradient
       x1="0"
       y1="0"
       x2="1"
       y2="0"
       gradientUnits="userSpaceOnUse"
       gradientTransform="matrix(508.375,115.508,158.858,-474.669,-30.2085,727.563)"
       spreadMethod="pad"
       id="linearGradient60"><stop
         style="stop-opacity:1;stop-color:#48a839"
         offset="0"
         id="stop56" /><stop
         style="stop-opacity:1;stop-color:#89cc6d"
         offset="1"
         id="stop58" /></linearGradient></defs><sodipodi:namedview
     pagecolor="#ffffff"
     bordercolor="#666666"
     borderopacity="1"
     objecttolerance="10"
     gridtolerance="10"
     guidetolerance="10"
     inkscape:pageopacity="0"
     inkscape:pageshadow="2"
     inkscape:window-width="640"
     inkscape:window-height="480"
     id="namedview4" /><g
     id="g10"
     inkscape:groupmode="layer"
     inkscape:label="ink_ext_XXXXXX"
     transform="matrix(1.3333333,0,0,-1.3333333,0,185.30667)"><g
       id="g12"
       transform="scale(0.1)"><g
         id="g14"><g
           id="g16"
           clip-path="url(#clipPath20)"><path
             d="m 332.363,44.4414 -36.09,11.957 c 0,0 4.598,182.6406 -61.277,195.4216 -43.433,50.321 6.684,2149.73 164.477,7.18 0,0 -54.008,-27.121 -64.231,-73.148 C 325.023,139.75 332.363,44.4414 332.363,44.4414"
             style="fill:url(#linearGradient28);fill-opacity:1;fill-rule:nonzero;stroke:none"
             id="path30" /></g></g><g
         id="g32"><g
           id="g34"
           clip-path="url(#clipPath38)"><path
             d="m 351.805,220.809 c 0,0 313.558,206.515 240.093,635.414 -70.734,311.607 -237.757,414.037 -255.714,453.157 -19.762,27.66 -39.657,76.72 -39.657,76.72 l 13.336,-868.209 c 0,0 -27.593,-265.102 41.942,-297.082"
             style="fill:url(#linearGradient44);fill-opacity:1;fill-rule:nonzero;stroke:none"
             id="path46" /></g></g><g
         id="g48"><g
           id="g50"
           clip-path="url(#clipPath54)"><path
             d="m 277.902,209.27 c 0,0 -294.1168,200.648 -277.198875,554.679 C 17.6367,1117.98 225.379,1292.06 265.836,1323.63 c 26.16,27.89 27.234,38.64 29.262,66.14 18.336,-39.38 15.285,-588.254 17.222,-652.403 C 319.859,487.629 298.488,256.41 277.902,209.27"
             style="fill:url(#linearGradient60);fill-opacity:1;fill-rule:nonzero;stroke:none"
             id="path62" /></g></g><path
         d="m 3833.84,313.93 c 20.83,-16.649 62.47,-23.5 99.18,-23.5 47.59,0 94.2,8.82 139.81,49.929 46.59,42.129 78.33,106.758 78.33,209.586 0,98.907 -37.69,179.211 -115.02,226.219 -43.65,27.418 -100.15,38.184 -164.61,38.184 -18.84,0 -37.69,-0.973 -48.59,-5.868 -2.98,-1.96 -8.93,-9.796 -8.93,-13.722 -1.98,-17.621 -1.98,-151.781 -1.98,-231.102 0,-81.277 0,-194.875 1.98,-208.597 1,-11.75 6.94,-32.309 19.83,-41.129 z m -197.91,544.492 c 16.84,0 80.9,-2.938 110.67,-2.938 55.52,0 94.19,2.938 198.29,2.938 87.27,0 160.66,-23.504 213.21,-68.547 63.47,-54.848 97.18,-131.23 97.18,-224.262 0,-132.207 -60.49,-208.582 -120.97,-251.683 -60.49,-45.039 -138.84,-70.5 -250.88,-70.5 -59.5,0 -161.65,1.961 -246.93,2.922 h -1.16 c -3.96,7.847 7.3,38.386 14.28,39.179 23.04,2.61 29.29,3.5 40,7.91 17.99,7.399 22.26,16.571 24.25,48.899 2.96,60.707 1.98,133.172 1.98,215.441 0,58.75 0.98,173.328 -1,209.567 -2.97,30.355 -15.84,38.187 -41.64,44.07 -12.89,2.93 -30.74,5.875 -55.53,8.812 -1.98,5.872 13.29,32.321 18.25,38.192"
         style="fill:#c0bdba;fill-opacity:1;fill-rule:nonzero;stroke:none"
         id="path64" /><path
         d="m 4517.88,810.43 c -3.96,-0.977 -8.93,-10.774 -8.93,-15.672 -0.98,-35.242 -1.97,-127.297 -1.97,-190.945 0,-1.961 2.96,-4.899 4.96,-4.899 12.89,-0.988 44.6,-1.969 71.38,-1.969 37.68,0 59.51,4.907 71.4,10.785 31.74,15.657 46.6,49.938 46.6,87.149 0,85.195 -59.49,117.516 -147.73,117.516 -5.96,0 -22.82,0 -35.71,-1.965 z m 225.09,-391.715 c 0,86.176 -63.45,135.137 -179.49,135.137 -4.94,0 -41.65,0.992 -50.56,-0.981 -2.98,-0.969 -5.94,-2.926 -5.94,-4.887 0,-61.703 -1,-160.613 1.97,-199.773 1.99,-16.652 13.9,-40.152 28.76,-47.012 15.88,-8.808 51.56,-10.769 76.35,-10.769 68.43,0 128.91,38.191 128.91,128.285 z m -404.18,439.707 c 8.92,0 35.32,-2.938 102.74,-2.938 63.47,0 115.01,1.954 176.5,1.954 76.35,0 181.46,-27.418 181.46,-141.016 0,-55.817 -39.66,-100.867 -91.21,-122.414 -2.99,-0.981 -2.99,-2.942 0,-3.918 73.37,-18.598 137.82,-63.652 137.82,-149.828 0,-84.211 -52.55,-137.102 -128.9,-170.403 -46.61,-20.558 -104.12,-27.41 -162.64,-27.41 -44.62,0 -164.19,4.891 -230.63,3.903 -6.96,2.949 6.36,34.289 12.29,39.179 15.87,0.981 28.12,2.117 44.98,7.02 23.79,5.871 26.61,13.551 29.58,48.808 2,30.34 2,139.047 2,216.422 0,105.762 0.98,177.246 0,212.5 -1.01,27.422 -10.92,36.239 -29.76,41.137 -14.87,2.93 -39.65,5.875 -59.48,8.812 -4.97,4.899 10.29,34.274 15.25,38.192"
         style="fill:#c0bdba;fill-opacity:1;fill-rule:nonzero;stroke:none"
         id="path66" /><path
         d="m 791.328,243.859 c -1.652,2.629 -3.398,10.422 -3.035,19.789 0.273,7.133 1.687,11.653 3.023,13.204 18.704,2.949 27.555,4.949 38.063,7.757 17.531,4.352 24.144,13.813 25.172,36.243 2.879,52.808 3.047,151.847 1.996,221.5 l 0.012,2.054 c 0.082,7.473 0.199,17.688 -9.188,24.891 -13.754,9.058 -30.894,16.555 -52.594,23.062 -8.304,2.461 -12.894,6.825 -12.644,11.93 0.258,4.906 5.465,11.145 16.289,13.234 28.715,2.961 104.004,20.879 133.543,34.512 1.746,-2.125 4.508,-6.73 3.976,-14.074 -0.222,-3.09 -0.496,-6.32 -0.765,-9.664 -0.84,-9.844 -1.785,-21 -1.785,-32.125 0,-3.274 3.554,-6.375 7.32,-6.375 1.914,0 3.684,0.746 5.125,2.168 56.304,44.058 106.654,59.789 132.584,59.789 42.59,0 75.75,-20.332 101.37,-62.133 1.5,-2.215 3.52,-3.383 5.77,-3.383 2.15,0 4.18,1.11 5.37,2.879 51.77,39.223 103.08,62.637 137.38,62.637 81.18,0 129.67,-60.699 129.67,-162.336 0,-29.207 -0.3,-66.227 -0.56,-100.789 -0.25,-30.309 -0.46,-58.738 -0.46,-78.41 0,-4.77 6.38,-17.989 16.01,-20.629 11.86,-5.781 29.02,-8.731 50.67,-12.461 l 0.84,-0.141 c 1.64,-5.816 -1.81,-28.476 -5.1,-33.117 -5.37,0.039 -12.82,0.43 -22.09,0.899 -16.86,0.859 -39.95,2.019 -66.85,2.019 -53.94,0 -82.12,-1.059 -109.04,-2.789 -2.03,6.719 -2.74,28.41 -0.27,32.93 15.7,2.941 23.47,4.922 32.89,7.711 17.17,5.66 22.12,13.429 23.12,36.211 0.39,16.199 3.5,158.738 -2.02,192.586 -5.09,35.07 -31.56,76.125 -89.44,76.125 -21.47,0 -56.17,-8.922 -89.23,-33.965 -2.06,-1.993 -3.24,-5.864 -3.24,-8.407 l 0.06,-0.652 c 3.9,-18.269 3.9,-39.574 3.9,-71.812 0,-18.375 -0.12,-37.872 -0.23,-57.223 -0.22,-39.293 -0.44,-76.402 0.23,-104.434 0,-19.109 11.57,-23.672 20.87,-27.359 5.05,-1.121 9.07,-2.082 13.08,-3.039 7.79,-1.883 15.86,-3.813 27.79,-5.723 1.63,-3.769 1.78,-15.019 -0.46,-24.64 -1.25,-5.321 -2.69,-7.661 -3.45,-8.418 -30,1.031 -60.77,1.929 -105.18,1.929 -13.46,0 -35.44,-0.59 -54.82,-1.101 -15.72,-0.418 -30.61,-0.828 -39.06,-0.86 -1.23,1.93 -2.94,8.129 -2.94,17.071 0,8.3 1.52,14.148 3.09,15.961 4.17,0.769 8.14,1.468 11.93,2.14 10.41,1.86 19.41,3.438 28.04,5.559 14.7,4.48 20.21,12.64 21.28,31.308 2.87,43.582 5.12,169.125 -1.06,200.571 -10.51,50.449 -39.27,76.019 -85.45,76.019 -27.08,0 -61.264,-13.011 -89.209,-33.941 -4.687,-3.449 -8.23,-12.137 -8.23,-20.16 0,-14.946 -0.047,-32.75 -0.106,-51.836 -0.187,-63.055 -0.414,-141.539 1.121,-175.5 0.946,-10.43 4.582,-22.86 24.285,-27.449 4.297,-1.204 11.75,-2.454 20.379,-3.872 4.969,-0.82 10.403,-1.718 15.985,-2.73 2.008,-5.391 0.781,-26.559 -2.657,-33.141 -8.617,0.051 -19.218,0.551 -31.382,1.082 -18.582,0.821 -41.688,1.848 -68.024,1.848 -30.992,0 -52.574,-1.027 -69.902,-1.848 -11.621,-0.55 -21.703,-1.043 -31.762,-1.082 v 0"
         style="fill:#424144;fill-opacity:1;fill-rule:nonzero;stroke:none"
         id="path68" /><path
         d="m 1775.07,610.117 c -18.05,0 -34.9,-4.722 -47.43,-13.304 -34.44,-20.915 -51.96,-62.68 -51.96,-124.032 0,-114.89 57.59,-195.121 140.04,-195.121 24.32,0 44.16,6.981 60.64,21.36 25.33,20.652 38.77,62.82 38.77,121.863 0,113.191 -56.29,189.234 -140.06,189.234 z m 15.88,-375.078 c -148.98,0 -202.06,109.16 -202.06,211.297 0,71.344 29.21,127.137 86.85,165.797 40.96,25.152 89.87,39.621 134.04,39.621 113.7,0 193.12,-81.652 193.12,-198.574 0,-79.489 -31.74,-142.231 -91.76,-181.45 -28.78,-17.64 -78.74,-36.691 -120.19,-36.691 v 0"
         style="fill:#424144;fill-opacity:1;fill-rule:nonzero;stroke:none"
         id="path70" /><path
         d="m 3317.83,610.117 c -18.07,0 -34.93,-4.722 -47.46,-13.304 -34.41,-20.915 -51.95,-62.668 -51.95,-124.032 0,-114.89 57.58,-195.121 140.05,-195.121 24.33,0 44.15,6.981 60.63,21.371 25.34,20.641 38.78,62.801 38.78,121.84 0,113.192 -56.28,189.246 -140.05,189.246 z m 15.87,-375.078 c -149,0 -202.08,109.152 -202.08,211.285 0,71.367 29.24,127.16 86.87,165.821 40.96,25.152 89.86,39.609 134.04,39.609 113.71,0 193.13,-81.664 193.13,-198.563 0,-79.519 -31.75,-142.261 -91.77,-181.441 -28.79,-17.66 -78.73,-36.711 -120.19,-36.711 v 0"
         style="fill:#424144;fill-opacity:1;fill-rule:nonzero;stroke:none"
         id="path72" /><path
         d="m 2819.29,614.023 c -45.93,0 -75.61,-36.226 -75.61,-92.285 0,-56.582 25.52,-122.644 97.43,-122.644 12.35,0 34.74,5.48 45.82,17.695 16.71,15.332 27.62,47.012 27.62,80.477 0,73.117 -35.62,116.757 -95.26,116.757 z m -5.94,-386.804 c -17.25,0 -29.8,-5.02 -37.3,-9.219 -36.35,-23.281 -53.2,-46.531 -53.2,-73.289 0,-25.242 9.81,-45.2891 30.89,-63.1212 25.52,-21.6015 59.94,-32.1093 105.21,-32.1093 89.05,0 128.98,47.8281 128.98,95.2305 0,32.988 -16.58,55.109 -50.68,67.609 -26.28,9.59 -70.17,14.899 -123.9,14.899 z M 2819.29,0 c -53.49,0 -92.02,11.2695 -124.95,36.5703 -32.02,24.6992 -46.36,61.3086 -46.36,86.6097 0,7.281 1.72,26.082 17.54,44.05 9.33,10.571 30.91,30.372 80.77,64.629 1.52,0.571 2.59,2.082 2.59,3.922 0,2.039 -1.32,3.688 -3.13,4.078 -41.09,15.711 -53.49,41.5 -57.22,55.5 -0.06,0.5 -0.24,1.301 -0.41,2.153 -1.18,5.488 -2.28,10.679 5.14,16.008 5.75,4.109 15,9.57 24.79,15.351 14.45,8.52 30.81,18.168 39.88,25.938 1.44,1.402 2.02,3.453 1.67,5.5 -0.34,2.082 -1.54,3.781 -3.32,4.652 -60.82,20.418 -91.44,65.543 -91.44,134.262 0,44.367 20.48,84.465 56.18,110.031 24.45,19.309 85.86,42.523 125.63,42.523 l 2.32,-0.023 c 40.92,-0.969 63.99,-9.527 95.91,-21.336 17.33,-6.414 33.74,-9.012 56.69,-9.012 33.87,0 48.67,10.723 61.36,23.039 0.73,-1.527 2.45,-6.367 3.23,-17.515 0.81,-11.367 -2.3,-28.215 -11,-40.235 -6.93,-9.586 -22.97,-16.535 -38.13,-16.535 -1.53,0 -3.01,0.07 -4.45,0.223 -15.6,1.527 -22.93,3.801 -23,3.836 l -3.83,-1.332 c -1.2,-1.758 -0.42,-3.715 0.57,-6.188 0.23,-0.594 0.48,-1.156 0.57,-1.531 1.99,-7.926 5.52,-31.07 5.52,-37.555 0,-72.066 -28.46,-103.5 -59.23,-126.738 -29.35,-22.125 -63.67,-35.434 -102.34,-39.516 h -0.03 c -0.79,0 -4.45,-0.328 -11.84,-0.98 -4.76,-0.43 -10.7,-0.969 -11.57,-0.969 l -0.88,-0.109 c -6.72,-1.903 -24.15,-10.18 -24.15,-25.602 0,-12.82 7.91,-28.711 45.6,-31.558 7.64,-0.571 15.85,-1.141 24.41,-1.719 49.77,-3.473 111.93,-7.781 141.19,-17.692 40.23,-14.648 65.27,-50.648 65.27,-93.949 0,-64.679 -46.03,-125.4802 -123.13,-162.6404 C 2898.32,8.55078 2860.35,0 2819.29,0 v 0"
         style="fill:#424144;fill-opacity:1;fill-rule:nonzero;stroke:none"
         id="path74" /><path
         d="m 2577.2,279.852 c -21.8,2.937 -37.68,5.878 -56.51,14.687 -2.98,1.961 -6.96,10.77 -6.96,13.711 -1.98,30.359 -1.98,118.5 -1.98,176.273 0,47.008 -7.92,88.133 -27.76,117.528 -23.8,33.289 -57.5,52.875 -101.14,52.875 -38.66,0 -90.23,-26.446 -132.87,-62.684 -0.99,-0.976 -7.54,-7.179 -7.4,2.461 0.15,9.633 1.64,29.231 2.54,41.578 0.9,12.336 -6.49,18.153 -6.49,18.153 -27.77,-13.707 -105.99,-32.27 -134.87,-35.254 -21.1,-4.059 -27.35,-24.328 -3.97,-31.328 v -0.004 c 0.13,-0.039 0.24,-0.078 0.37,-0.118 23.51,-7.062 39.37,-14.617 51.19,-22.41 8.93,-6.855 7.94,-16.648 7.94,-24.484 0.99,-65.609 0.99,-166.484 -1.98,-221.324 -1,-21.543 -6.95,-29.364 -22.82,-33.293 l 1.46,0.48 c -11.9,-2.918 -21.82,-4.89 -36.7,-6.847 -4.95,-4.891 -4.95,-33.293 0,-39.18 9.92,0 60.5,2.949 102.14,2.949 57.51,0 87.26,-2.949 102.13,-2.949 5.96,6.867 7.94,33.316 3.97,39.18 -16.86,0.98 -28.76,2.937 -40.66,5.878 -15.87,3.911 -19.83,11.75 -20.81,29.379 -1.99,46.02 -1.99,143.946 -1.99,210.547 0,18.61 4.96,27.422 10.91,32.321 19.82,17.628 52.55,29.371 81.31,29.371 27.76,0 46.6,-8.817 60.48,-20.555 18.85,-15.672 25.79,-38.199 27.77,-54.848 3.97,-37.218 2.97,-111.64 2.97,-176.265 0,-35.258 -2.97,-44.078 -15.86,-48 -5.95,-2.93 -21.82,-5.871 -40.66,-7.828 -5.94,-5.864 -3.97,-33.293 0,-39.18 25.78,0 55.54,2.949 99.16,2.949 54.54,0 89.24,-2.949 103.13,-2.949 5.95,6.867 7.92,32.34 3.96,39.18"
         style="fill:#424144;fill-opacity:1;fill-rule:nonzero;stroke:none"
         id="path76" /></g></g></svg>
